# File created by Blade
# Date/Time:  Mon Nov 18 17:26:10 2013
# Frame Rate: 100.000 fps
#------------------------------------------------------
:FULLY-SPECIFIED
:DEGREES
160
root -41.251114 -3.269520 39.153177 7.284708 -2.755966 18.759277
Spine 22.800791 -2.258301 1.513173
Spine1 8.521264 -0.810516 3.388899
Spine2 -21.698294 -2.550255 -0.639830
NeckDummy -0.135388 0.143990 0.835368 14.212094 -0.526949 -0.314269
Neck 4.610863 -15.010048 43.580351
Head -0.425368 0.003805 0.314265 -5.757649 -5.204494 -2.047234
LeftShoulderDummy -0.176327 0.155956 0.856667 14.203221 -0.689106 -0.123601
LeftShoulder 7.364349 -10.445207 18.833822
LeftArm 19.751425 39.332107 16.725444
LeftForeArm 58.976370
LeftForeArmRoll 15.078296
LeftHand -33.116500 -22.307808 10.181146
LeftHandThumb1 14.191808 4.746680
LeftHandIndex1 -0.817448 43.528554
LeftHandPinky1 1.658738 64.132777
RightShoulderDummy -0.131899 0.167579 0.805850 14.175012 0.530926 0.377571
RightShoulder 8.904458 4.550962 9.770036
RightArm 0.569361 66.612356 34.288364
RightForeArm 100.904916
RightForeArmRoll 24.620333
RightHand -45.339017 -21.581140 7.007774
RightHandThumb1 14.741944 9.954773
RightHandIndex1 7.127717 38.889096
RightHandPinky1 13.475312 71.379687
LeftUpLeg -16.031053 24.598438 -39.952670
LeftLeg 37.668108
LeftFoot 0.030355 -0.677055 -1.130184 -28.417819 25.025601 3.624311
LeftToeBase -0.569896
RightUpLeg -0.767323 15.842751 -32.040108
RightLeg 53.788398
RightFoot -0.549217 0.796958 0.927013 -19.858002 7.376614 -24.289872
RightToeBase -1.092884
161
root -41.356595 -3.274227 39.182701 7.175963 -2.651513 18.753482
Spine 22.864522 -2.137348 1.473964
Spine1 8.538877 -0.765368 3.325378
Spine2 -21.688227 -2.684102 -0.705985
NeckDummy -0.141309 0.142497 0.833626 14.231424 -0.481725 -0.395069
Neck 4.543587 -14.967825 43.581448
Head -0.436935 0.005135 0.313381 -5.755080 -5.252557 -2.163897
LeftShoulderDummy -0.183223 0.153065 0.854198 14.223813 -0.647139 -0.189922
LeftShoulder 7.409862 -10.488791 18.881008
LeftArm 19.697902 39.605828 16.560397
LeftForeArm 58.972193
LeftForeArmRoll 15.046439
LeftHand -33.255748 -22.412288 10.389622
LeftHandThumb1 13.995451 4.818269
LeftHandIndex1 -0.762643 43.464995
LeftHandPinky1 1.406400 64.127145
RightShoulderDummy -0.137914 0.167269 0.805088 14.194974 0.485815 0.450462
RightShoulder 8.900860 4.452663 9.770999
RightArm 0.553628 66.430746 34.601005
RightForeArm 100.850971
RightForeArmRoll 24.589827
RightHand -45.371122 -21.596480 7.162379
RightHandThumb1 14.510820 10.111222
RightHandIndex1 7.462992 39.275672
RightHandPinky1 13.584738 71.360942
LeftUpLeg -16.296279 24.566023 -39.653934
LeftLeg 37.390165
LeftFoot 0.027580 -0.674542 -1.114362 -28.403045 25.310458 3.852151
LeftToeBase -0.593979
RightUpLeg -0.785807 15.726475 -32.035059
RightLeg 54.037079
RightFoot -0.563041 0.818256 0.958226 -19.681502 7.067004 -24.592983
RightToeBase -1.015448
162
root -41.452662 -3.276535 39.208456 7.072156 -2.522880 18.777764
Spine 22.933937 -2.041388 1.423440
Spine1 8.563883 -0.732749 3.250980
Spine2 -21.673510 -2.755574 -0.731447
NeckDummy -0.143632 0.137679 0.832321 14.234116 -0.471913 -0.388896
Neck 4.576591 -15.039895 43.590369
Head -0.438650 0.008695 0.307476 -5.724176 -5.259886 -2.187616
LeftShoulderDummy -0.184818 0.147945 0.852905 14.226986 -0.635608 -0.196578
LeftShoulder 7.515831 -10.621682 18.927083
LeftArm 19.763589 39.856116 16.505343
LeftForeArm 58.852187
LeftForeArmRoll 15.006342
LeftHand -33.426866 -22.575329 10.651065
LeftHandThumb1 14.342388 4.491133
LeftHandIndex1 -0.602552 43.658246
LeftHandPinky1 1.657757 64.099286
RightShoulderDummy -0.140161 0.161878 0.803984 14.198492 0.476323 0.444450
RightShoulder 8.810298 4.535110 9.787468
RightArm 0.441924 66.302445 34.831368
RightForeArm 100.811056
RightForeArmRoll 24.561063
RightHand -45.322425 -21.665344 7.361198
RightHandThumb1 14.293737 9.972190
RightHandIndex1 7.786609 39.863903
RightHandPinky1 13.410287 71.299252
LeftUpLeg -16.524402 24.491500 -39.349644
LeftLeg 37.087259
LeftFoot 0.023348 -0.670619 -1.099594 -28.354456 25.586556 4.038564
LeftToeBase -0.656602
RightUpLeg -0.881104 15.641336 -32.021820
RightLeg 54.227045
RightFoot -0.559902 0.792269 0.919601 -19.620810 7.581491 -24.596664
RightToeBase -1.055368
163
root -41.544304 -3.277099 39.236792 7.004244 -2.413033 18.805226
Spine 22.939254 -1.953104 1.370030
Spine1 8.583212 -0.692275 3.169237
Spine2 -21.652855 -2.795494 -0.804072
NeckDummy -0.144934 0.134846 0.830064 14.222796 -0.419332 -0.567283
Neck 4.526585 -14.952102 43.649455
Head -0.440295 0.011079 0.304868 -5.704079 -5.269173 -2.187509
LeftShoulderDummy -0.185447 0.141885 0.849440 14.215940 -0.582215 -0.363144
LeftShoulder 7.563810 -10.630638 19.005908
LeftArm 19.714727 39.979947 16.405654
LeftForeArm 58.669226
LeftForeArmRoll 14.795383
LeftHand -33.374326 -22.587048 10.821192
LeftHandThumb1 14.188114 4.956642
LeftHandIndex1 -0.601453 43.768953
LeftHandPinky1 1.693191 64.378233
RightShoulderDummy -0.140970 0.162085 0.802839 14.187970 0.422342 0.623447
RightShoulder 8.785620 4.397151 9.661634
RightArm 0.232201 66.123354 34.921196
RightForeArm 100.770876
RightForeArmRoll 24.538975
RightHand -45.336012 -21.521375 7.385363
RightHandThumb1 13.516993 9.651825
RightHandIndex1 8.103346 39.865731
RightHandPinky1 13.464063 71.072888
LeftUpLeg -16.813281 24.409700 -39.095274
LeftLeg 36.836684
LeftFoot 0.013736 -0.672496 -1.083594 -28.221429 25.891822 4.109812
LeftToeBase -0.750489
RightUpLeg -1.044111 15.539064 -32.026040
RightLeg 54.346297
RightFoot -0.529855 0.806399 0.983552 -19.451435 7.477953 -24.707455
RightToeBase -1.018133
